<?xml version="1.0" encoding="utf-8"?>
<!-- Generator: Adobe Illustrator 26.3.1, SVG Export Plug-In . SVG Version: 6.00 Build 0)  -->
<svg version="1.1" id="Layer_1" xmlns="http://www.w3.org/2000/svg" xmlns:xlink="http://www.w3.org/1999/xlink" x="0px" y="0px"
	 viewBox="0 0 266 301" style="enable-background:new 0 0 266 301;" xml:space="preserve">
<path d="M67.1,43.2c2.2-2.1,5.5-2.3,7.9-0.4c17.1,13.4,39.3,36.2,43.5,89c5.1,64.3,23.2,104.1,51.9,127.8l0,0
	c1.7,1.4,2.5,3.6,2.1,5.8c-0.4,2.2-2,3.9-4.1,4.5c-50.8,14.8-108-27.7-127.6-95C25.4,122.6,37.3,70.7,67.1,43.2
	C67.1,43.2,67.1,43.2,67.1,43.2z"/>
<path d="M109.7,32.7c-1.2-1.8-1.3-4.1-0.3-6.1c1-1.9,2.9-3.2,5.1-3.3c46-2.2,92.8,38.1,110.3,97.9c13.1,44.8,6.3,89.3-14.8,118.4
	l0,0c-1.8,2.5-5.1,3.3-7.8,1.9c-32.9-16.4-53.7-49.5-62.1-112.6C134.8,88,124.5,55.9,109.7,32.7L109.7,32.7L109.7,32.7z"/>
</svg>
