<?xml version="1.0" encoding="UTF-8"?><svg id="Layer_1" xmlns="http://www.w3.org/2000/svg" viewBox="0 0 158 65"><defs><style>.cls-1{fill:#2a3040;}</style></defs><path class="cls-1" d="M20.09,46.05l11.04-19.08c.92-1.6,1.53-2.92,1.83-3.96,.3-1.04,.44-1.89,.42-2.55-.02-.66-.14-1.17-.36-1.53-.22-.36-.39-.68-.51-.96h8.16c-.28,.28-.68,.57-1.2,.87-.52,.3-1.14,.76-1.86,1.38-.72,.62-1.53,1.46-2.43,2.52-.9,1.06-1.87,2.49-2.91,4.29l-2.7,4.62,8.22,16.14c.92,1.8,1.75,3.23,2.49,4.29,.74,1.06,1.4,1.9,1.98,2.52,.58,.62,1.09,1.08,1.53,1.38,.44,.3,.82,.59,1.14,.87h-13.68c.08-.24,.19-.51,.33-.81,.14-.3,.18-.75,.12-1.35s-.28-1.44-.66-2.52c-.38-1.08-1.03-2.52-1.95-4.32l-4.14-8.22-4.86,8.52c0,1.72,.1,3.09,.3,4.11,.2,1.02,.43,1.82,.69,2.4,.26,.58,.53,1.02,.81,1.32,.28,.3,.52,.59,.72,.87H8.93c.2-.24,.44-.51,.72-.81,.28-.3,.55-.75,.81-1.35,.26-.6,.48-1.44,.66-2.52,.18-1.08,.27-2.52,.27-4.32V15.27c0-1.8-.09-3.24-.27-4.32s-.39-1.94-.63-2.58c-.24-.64-.5-1.11-.78-1.41-.28-.3-.54-.57-.78-.81h11.16V46.05Z"/><path class="cls-1" d="M63.84,10.72c3.7,0,7.08,.54,10.12,1.63,3.05,1.09,5.66,2.64,7.84,4.65,2.18,2.01,3.86,4.44,5.06,7.27,1.2,2.83,1.8,5.96,1.8,9.39s-.6,6.64-1.8,9.47c-1.2,2.83-2.89,5.27-5.06,7.31-2.18,2.04-4.79,3.62-7.84,4.74-3.05,1.11-6.42,1.67-10.12,1.67s-7.09-.56-10.17-1.67c-3.08-1.11-5.7-2.69-7.88-4.74-2.18-2.04-3.87-4.48-5.06-7.31-1.2-2.83-1.8-5.99-1.8-9.47s.6-6.56,1.8-9.39c1.2-2.83,2.89-5.25,5.06-7.27,2.18-2.01,4.79-3.56,7.84-4.65,3.05-1.09,6.45-1.63,10.21-1.63Zm0,44.42c1.8,0,3.47-.54,5.02-1.63,1.55-1.09,2.88-2.6,4-4.53,1.11-1.93,2-4.21,2.65-6.82s.98-5.44,.98-8.49-.31-5.86-.94-8.45c-.63-2.58-1.51-4.83-2.65-6.74-1.14-1.9-2.49-3.39-4.04-4.45-1.55-1.06-3.23-1.59-5.02-1.59s-3.55,.53-5.1,1.59c-1.55,1.06-2.9,2.55-4.04,4.45-1.14,1.91-2.03,4.15-2.65,6.74-.63,2.59-.94,5.4-.94,8.45s.33,5.88,.98,8.49,1.55,4.89,2.69,6.82,2.49,3.44,4.04,4.53c1.55,1.09,3.23,1.63,5.02,1.63Z"/><path class="cls-1" d="M102.92,21.27c.92-1.4,1.69-2.78,2.31-4.14,.62-1.36,1-2.58,1.14-3.66,.14-1.08,0-1.96-.39-2.64-.4-.68-1.18-1.02-2.34-1.02-1.56,0-2.75,.6-3.57,1.8-.82,1.2-1.23,2.64-1.23,4.32,0,1.4,.27,2.6,.81,3.6,.54,1,1.19,1.82,1.95,2.46,.76,.64,1.54,1.14,2.34,1.5,.8,.36,1.46,.62,1.98,.78h5.04v1.2h-9.54v22.32c0,1.8,.09,3.23,.27,4.29,.18,1.06,.4,1.9,.66,2.52,.26,.62,.54,1.08,.84,1.38,.3,.3,.55,.59,.75,.87h-13.62c.2-.24,.44-.51,.72-.81,.28-.3,.55-.76,.81-1.38,.26-.62,.48-1.47,.66-2.55s.27-2.52,.27-4.32V25.47h-2.7v-1.2h14.28c-.8-.12-1.94-.32-3.42-.6-1.48-.28-2.95-.72-4.41-1.32-1.46-.6-2.73-1.42-3.81-2.46s-1.62-2.4-1.62-4.08c0-2.48,.9-4.29,2.7-5.43,1.8-1.14,4.2-1.71,7.2-1.71,1.64,0,3.08,.19,4.32,.57,1.24,.38,2.28,1.05,3.12,2.01,.84,.96,1.47,2.25,1.89,3.87s.63,3.67,.63,6.15h-8.04Z"/><path class="cls-1" d="M143.94,51.36c-1.49,1.79-3.39,3.15-5.69,4.09-2.3,.94-5.09,1.41-8.37,1.41-3.11,0-5.85-.44-8.21-1.31-2.37-.87-4.35-2.11-5.94-3.71s-2.79-3.52-3.58-5.75c-.79-2.24-1.18-4.7-1.18-7.38s.42-5.13,1.25-7.35c.83-2.21,2.08-4.11,3.74-5.69,1.66-1.58,3.73-2.79,6.2-3.64,2.47-.85,5.33-1.28,8.56-1.28,1.96,0,3.76,.18,5.4,.54,1.64,.36,3.05,.93,4.22,1.69,1.17,.77,2.09,1.76,2.75,2.97,.66,1.22,.99,2.7,.99,4.44s-.35,3.19-1.05,4.44c-.7,1.26-1.81,2.31-3.32,3.16-1.51,.85-3.47,1.49-5.88,1.92-2.41,.43-5.32,.64-8.72,.64-1.58,0-2.68,.37-3.32,1.12s-.92,1.52-.83,2.33c.64,3.54,1.93,6.34,3.87,8.41,1.94,2.07,4.51,3.1,7.7,3.1,2.05,0,3.99-.45,5.85-1.34,1.85-.89,3.44-2.15,4.76-3.77l.83,.96Zm-23.39-10.16c.43-.6,1.01-1.08,1.76-1.44,.75-.36,1.67-.54,2.78-.54,2.17,0,3.95-.31,5.34-.93,1.38-.62,2.47-1.42,3.26-2.4,.79-.98,1.32-2.09,1.6-3.32,.28-1.23,.42-2.45,.42-3.64,0-2.13-.39-3.8-1.18-5.02-.79-1.21-2.08-1.82-3.87-1.82-1.41,0-2.73,.39-3.96,1.18-1.24,.79-2.31,1.92-3.23,3.39-.92,1.47-1.64,3.22-2.17,5.24-.53,2.02-.8,4.29-.8,6.81v1.25c0,.4,.02,.82,.06,1.25Z"/></svg>