<svg width="31" height="30" viewBox="0 0 31 30" fill="none" xmlns="http://www.w3.org/2000/svg">
<path d="M19.8068 16.25C20.7234 16.25 21.5301 15.7375 21.9457 14.9625L26.3212 6.85C26.7734 6.025 26.1868 5 25.2579 5H7.16899L6.0201 2.5H2.02344V5H4.46788L8.86788 14.4875L7.21788 17.5375C6.32566 19.2125 7.49899 21.25 9.35677 21.25H24.0234V18.75H9.35677L10.7012 16.25H19.8068ZM8.3301 7.5H23.1801L19.8068 13.75H11.2268L8.3301 7.5ZM9.35677 22.5C8.01233 22.5 6.92455 23.625 6.92455 25C6.92455 26.375 8.01233 27.5 9.35677 27.5C10.7012 27.5 11.8012 26.375 11.8012 25C11.8012 23.625 10.7012 22.5 9.35677 22.5ZM21.579 22.5C20.2345 22.5 19.1468 23.625 19.1468 25C19.1468 26.375 20.2345 27.5 21.579 27.5C22.9234 27.5 24.0234 26.375 24.0234 25C24.0234 23.625 22.9234 22.5 21.579 22.5Z" fill="#3F525A"/>
</svg>
