<svg width="30" height="30" viewBox="0 0 30 30" fill="none" xmlns="http://www.w3.org/2000/svg">
<path d="M19.3758 17.4998H18.3883L18.0383 17.1623C19.5383 15.4123 20.3133 13.0248 19.8883 10.4873C19.3008 7.01231 16.4008 4.23731 12.9008 3.81231C7.61328 3.16231 3.16328 7.61231 3.81328 12.8998C4.23828 16.3998 7.01328 19.2998 10.4883 19.8873C13.0258 20.3123 15.4133 19.5373 17.1633 18.0373L17.5008 18.3873V19.3748L22.8133 24.6873C23.3258 25.1998 24.1633 25.1998 24.6758 24.6873C25.1883 24.1748 25.1883 23.3373 24.6758 22.8248L19.3758 17.4998ZM11.8758 17.4998C8.76328 17.4998 6.25078 14.9873 6.25078 11.8748C6.25078 8.76231 8.76328 6.24981 11.8758 6.24981C14.9883 6.24981 17.5008 8.76231 17.5008 11.8748C17.5008 14.9873 14.9883 17.4998 11.8758 17.4998Z" fill="#3F525A"/>
</svg>
